ply
format ascii 1.0
comment Created by Blender 2.93.1 - www.blender.org
element vertex 33
property float x
property float y
property float z
element face 62
property list uchar uint vertex_indices
end_header
0.000000 1.000000 -1.000000
0.000000 0.000000 1.000000
0.195090 0.980785 -1.000000
0.382683 0.923880 -1.000000
0.555570 0.831470 -1.000000
0.707107 0.707107 -1.000000
0.831470 0.555570 -1.000000
0.923880 0.382683 -1.000000
0.980785 0.195090 -1.000000
1.000000 -0.000000 -1.000000
0.980785 -0.195090 -1.000000
0.923880 -0.382683 -1.000000
0.831470 -0.555570 -1.000000
0.707107 -0.707107 -1.000000
0.555570 -0.831470 -1.000000
0.382683 -0.923880 -1.000000
0.195090 -0.980785 -1.000000
-0.000000 -1.000000 -1.000000
-0.195090 -0.980785 -1.000000
-0.382683 -0.923880 -1.000000
-0.555570 -0.831470 -1.000000
-0.707107 -0.707107 -1.000000
-0.831469 -0.555570 -1.000000
-0.923880 -0.382684 -1.000000
-0.980785 -0.195090 -1.000000
-1.000000 0.000000 -1.000000
-0.980785 0.195090 -1.000000
-0.923879 0.382684 -1.000000
-0.831470 0.555570 -1.000000
-0.707107 0.707107 -1.000000
-0.555570 0.831470 -1.000000
-0.382683 0.923880 -1.000000
-0.195090 0.980785 -1.000000
3 0 1 2
3 2 1 3
3 3 1 4
3 4 1 5
3 5 1 6
3 6 1 7
3 7 1 8
3 8 1 9
3 9 1 10
3 10 1 11
3 11 1 12
3 12 1 13
3 13 1 14
3 14 1 15
3 15 1 16
3 16 1 17
3 17 1 18
3 18 1 19
3 19 1 20
3 20 1 21
3 21 1 22
3 22 1 23
3 23 1 24
3 24 1 25
3 25 1 26
3 26 1 27
3 27 1 28
3 28 1 29
3 29 1 30
3 30 1 31
3 8 16 24
3 31 1 32
3 32 1 0
3 32 0 2
3 2 3 4
3 4 5 6
3 6 7 8
3 8 9 10
3 10 11 12
3 12 13 14
3 14 15 16
3 16 17 18
3 18 19 20
3 20 21 22
3 22 23 24
3 24 25 26
3 26 27 24
3 27 28 24
3 28 29 32
3 29 30 32
3 30 31 32
3 32 2 8
3 2 4 8
3 4 6 8
3 8 10 12
3 12 14 8
3 14 16 8
3 16 18 24
3 18 20 24
3 20 22 24
3 24 28 32
3 32 8 24
